<svg width="19" height="19" viewBox="0 0 19 19" fill="none" xmlns="http://www.w3.org/2000/svg">
<path d="M9.01258 1.63485C9.01258 1.8699 9.10595 2.09532 9.27216 2.26152C9.43836 2.42772 9.66378 2.52109 9.89883 2.52109H15.6683L0.912322 17.277C0.767132 17.4466 0.691264 17.6647 0.69988 17.8877C0.708495 18.1108 0.800959 18.3223 0.958794 18.4802C1.11663 18.638 1.32821 18.7305 1.55126 18.7391C1.7743 18.7477 1.99238 18.6718 2.16192 18.5266L16.9001 3.78842V9.51355C16.9001 9.7486 16.9935 9.97402 17.1597 10.1402C17.3259 10.3064 17.5513 10.3998 17.7864 10.3998C18.0214 10.3998 18.2469 10.3064 18.4131 10.1402C18.5793 9.97402 18.6726 9.7486 18.6726 9.51355V1.53736C18.6726 1.32582 18.5886 1.12295 18.439 0.973363C18.2894 0.82378 18.0866 0.739746 17.875 0.739746H9.89883C9.78169 0.73974 9.66572 0.762954 9.55762 0.808045C9.44951 0.853136 9.35141 0.91921 9.269 1.00245C9.18659 1.08568 9.1215 1.18443 9.07748 1.29298C9.03347 1.40153 9.01141 1.51772 9.01258 1.63485Z" fill="black"/>
</svg>
